G04 EAGLE Gerber RS-274X export*
G75*
%MOMM*%
%FSLAX34Y34*%
%LPD*%
%INBottom Copper*%
%IPPOS*%
%AMOC8*
5,1,8,0,0,1.08239X$1,22.5*%
G01*
G04 Define Apertures*
%ADD10P,1.42962X8X112.5*%
%ADD11P,1.73204X8X292.5*%
%ADD12C,1.600200*%
%ADD13P,1.42962X8X202.5*%
%ADD14P,1.73204X8X202.5*%
%ADD15C,5.334000*%
%ADD16C,1.524000*%
%ADD17C,1.320800*%
%ADD18P,1.42962X8X22.5*%
%ADD19R,1.560000X1.560000*%
%ADD20C,1.560000*%
%ADD21R,1.910000X1.910000*%
%ADD22C,1.910000*%
%ADD23C,1.408000*%
%ADD24R,1.408000X1.408000*%
%ADD25C,1.981200*%
%ADD26C,0.406400*%
%ADD27C,0.812800*%
%ADD28C,0.304800*%
%ADD29C,0.203200*%
%ADD30C,0.508000*%
%ADD31C,0.906400*%
G36*
X565089Y12901D02*
X564098Y12700D01*
X128052Y12700D01*
X127099Y12886D01*
X126256Y13444D01*
X13444Y126256D01*
X12901Y127061D01*
X12700Y128052D01*
X12700Y626481D01*
X12856Y627359D01*
X13388Y628219D01*
X14212Y628804D01*
X15200Y629021D01*
X16193Y628835D01*
X17036Y628277D01*
X20981Y624332D01*
X29819Y624332D01*
X36068Y630581D01*
X36068Y639419D01*
X29819Y645668D01*
X20981Y645668D01*
X17036Y641723D01*
X16305Y641213D01*
X15321Y640980D01*
X14324Y641150D01*
X13473Y641694D01*
X12901Y642528D01*
X12700Y643519D01*
X12700Y995898D01*
X12886Y996851D01*
X13444Y997694D01*
X132606Y1116856D01*
X133411Y1117399D01*
X134402Y1117600D01*
X519648Y1117600D01*
X520601Y1117414D01*
X521444Y1116856D01*
X522460Y1115840D01*
X522970Y1115109D01*
X523203Y1114125D01*
X523033Y1113128D01*
X522488Y1112277D01*
X521655Y1111705D01*
X520664Y1111504D01*
X518376Y1111504D01*
X514082Y1109725D01*
X510795Y1106438D01*
X510347Y1105357D01*
X509866Y1104606D01*
X509046Y1104014D01*
X508061Y1103789D01*
X507066Y1103967D01*
X506218Y1104518D01*
X505653Y1105357D01*
X505205Y1106438D01*
X501918Y1109725D01*
X497624Y1111504D01*
X492976Y1111504D01*
X488682Y1109725D01*
X485395Y1106438D01*
X484947Y1105357D01*
X484466Y1104606D01*
X483646Y1104014D01*
X482661Y1103789D01*
X481666Y1103967D01*
X480818Y1104518D01*
X480253Y1105357D01*
X479805Y1106438D01*
X476518Y1109725D01*
X472224Y1111504D01*
X467576Y1111504D01*
X463282Y1109725D01*
X459995Y1106438D01*
X459547Y1105357D01*
X459066Y1104606D01*
X458246Y1104014D01*
X457261Y1103789D01*
X456266Y1103967D01*
X455418Y1104518D01*
X454853Y1105357D01*
X454405Y1106438D01*
X451118Y1109725D01*
X446824Y1111504D01*
X442176Y1111504D01*
X437882Y1109725D01*
X434595Y1106438D01*
X434147Y1105357D01*
X433666Y1104606D01*
X432846Y1104014D01*
X431861Y1103789D01*
X430866Y1103967D01*
X430018Y1104518D01*
X429453Y1105357D01*
X429005Y1106438D01*
X425718Y1109725D01*
X421424Y1111504D01*
X416776Y1111504D01*
X412482Y1109725D01*
X409195Y1106438D01*
X408747Y1105357D01*
X408266Y1104606D01*
X407446Y1104014D01*
X406461Y1103789D01*
X405466Y1103967D01*
X404618Y1104518D01*
X404053Y1105357D01*
X403605Y1106438D01*
X400318Y1109725D01*
X396024Y1111504D01*
X391376Y1111504D01*
X387082Y1109725D01*
X383795Y1106438D01*
X383347Y1105357D01*
X382866Y1104606D01*
X382046Y1104014D01*
X381061Y1103789D01*
X380066Y1103967D01*
X379218Y1104518D01*
X378653Y1105357D01*
X378205Y1106438D01*
X374918Y1109725D01*
X370624Y1111504D01*
X365976Y1111504D01*
X361682Y1109725D01*
X358395Y1106438D01*
X357947Y1105357D01*
X357466Y1104606D01*
X356646Y1104014D01*
X355661Y1103789D01*
X354666Y1103967D01*
X353818Y1104518D01*
X353253Y1105357D01*
X352805Y1106438D01*
X349518Y1109725D01*
X345224Y1111504D01*
X340576Y1111504D01*
X336282Y1109725D01*
X332995Y1106438D01*
X332547Y1105357D01*
X332066Y1104606D01*
X331246Y1104014D01*
X330261Y1103789D01*
X329266Y1103967D01*
X328418Y1104518D01*
X327853Y1105357D01*
X327405Y1106438D01*
X324118Y1109725D01*
X319824Y1111504D01*
X315176Y1111504D01*
X310882Y1109725D01*
X307595Y1106438D01*
X307147Y1105357D01*
X306666Y1104606D01*
X305846Y1104014D01*
X304861Y1103789D01*
X303866Y1103967D01*
X303018Y1104518D01*
X302453Y1105357D01*
X302005Y1106438D01*
X298718Y1109725D01*
X294424Y1111504D01*
X289776Y1111504D01*
X285482Y1109725D01*
X282195Y1106438D01*
X281747Y1105357D01*
X281266Y1104606D01*
X280446Y1104014D01*
X279461Y1103789D01*
X278466Y1103967D01*
X277618Y1104518D01*
X277053Y1105357D01*
X276605Y1106438D01*
X273318Y1109725D01*
X269024Y1111504D01*
X264376Y1111504D01*
X260082Y1109725D01*
X256795Y1106438D01*
X255522Y1103365D01*
X255041Y1102614D01*
X254222Y1102023D01*
X253236Y1101798D01*
X252241Y1101976D01*
X251394Y1102527D01*
X250829Y1103365D01*
X249913Y1105575D01*
X247055Y1108433D01*
X243321Y1109980D01*
X242062Y1109980D01*
X242062Y1074420D01*
X243321Y1074420D01*
X247055Y1075967D01*
X249913Y1078825D01*
X250829Y1081035D01*
X251309Y1081786D01*
X252129Y1082377D01*
X253115Y1082602D01*
X254110Y1082424D01*
X254957Y1081873D01*
X255522Y1081035D01*
X256795Y1077962D01*
X260082Y1074675D01*
X264376Y1072896D01*
X269024Y1072896D01*
X273318Y1074675D01*
X276605Y1077962D01*
X277053Y1079043D01*
X277534Y1079794D01*
X278354Y1080386D01*
X279339Y1080611D01*
X280335Y1080433D01*
X281182Y1079882D01*
X281747Y1079043D01*
X282195Y1077962D01*
X285482Y1074675D01*
X289776Y1072896D01*
X294424Y1072896D01*
X298718Y1074675D01*
X302005Y1077962D01*
X302453Y1079043D01*
X302934Y1079794D01*
X303754Y1080386D01*
X304739Y1080611D01*
X305735Y1080433D01*
X306582Y1079882D01*
X307147Y1079043D01*
X307595Y1077962D01*
X310882Y1074675D01*
X315176Y1072896D01*
X319824Y1072896D01*
X324118Y1074675D01*
X327405Y1077962D01*
X327853Y1079043D01*
X328334Y1079794D01*
X329154Y1080386D01*
X330139Y1080611D01*
X331135Y1080433D01*
X331982Y1079882D01*
X332547Y1079043D01*
X332995Y1077962D01*
X336282Y1074675D01*
X340576Y1072896D01*
X345224Y1072896D01*
X349518Y1074675D01*
X352805Y1077962D01*
X353253Y1079043D01*
X353734Y1079794D01*
X354554Y1080386D01*
X355539Y1080611D01*
X356535Y1080433D01*
X357382Y1079882D01*
X357947Y1079043D01*
X358395Y1077962D01*
X361682Y1074675D01*
X365976Y1072896D01*
X370624Y1072896D01*
X374918Y1074675D01*
X378205Y1077962D01*
X378653Y1079043D01*
X379134Y1079794D01*
X379954Y1080386D01*
X380939Y1080611D01*
X381935Y1080433D01*
X382782Y1079882D01*
X383347Y1079043D01*
X383795Y1077962D01*
X387082Y1074675D01*
X391376Y1072896D01*
X396024Y1072896D01*
X400318Y1074675D01*
X403605Y1077962D01*
X404053Y1079043D01*
X404534Y1079794D01*
X405354Y1080386D01*
X406339Y1080611D01*
X407335Y1080433D01*
X408182Y1079882D01*
X408747Y1079043D01*
X409195Y1077962D01*
X412482Y1074675D01*
X416776Y1072896D01*
X421424Y1072896D01*
X425718Y1074675D01*
X429005Y1077962D01*
X429453Y1079043D01*
X429934Y1079794D01*
X430754Y1080386D01*
X431739Y1080611D01*
X432735Y1080433D01*
X433582Y1079882D01*
X434147Y1079043D01*
X434595Y1077962D01*
X437882Y1074675D01*
X442176Y1072896D01*
X446824Y1072896D01*
X451118Y1074675D01*
X454405Y1077962D01*
X454853Y1079043D01*
X455334Y1079794D01*
X456154Y1080386D01*
X457139Y1080611D01*
X458135Y1080433D01*
X458982Y1079882D01*
X459547Y1079043D01*
X459995Y1077962D01*
X463282Y1074675D01*
X467576Y1072896D01*
X472224Y1072896D01*
X476518Y1074675D01*
X479805Y1077962D01*
X480253Y1079043D01*
X480734Y1079794D01*
X481554Y1080386D01*
X482539Y1080611D01*
X483535Y1080433D01*
X484382Y1079882D01*
X484947Y1079043D01*
X485395Y1077962D01*
X488682Y1074675D01*
X492976Y1072896D01*
X497624Y1072896D01*
X501918Y1074675D01*
X505205Y1077962D01*
X505653Y1079043D01*
X506134Y1079794D01*
X506954Y1080386D01*
X507939Y1080611D01*
X508935Y1080433D01*
X509782Y1079882D01*
X510347Y1079043D01*
X510795Y1077962D01*
X514082Y1074675D01*
X518642Y1072786D01*
X518901Y1072740D01*
X519761Y1072208D01*
X520346Y1071384D01*
X520563Y1070397D01*
X520377Y1069403D01*
X519819Y1068560D01*
X517752Y1066493D01*
X516128Y1062572D01*
X516128Y1058328D01*
X517752Y1054407D01*
X520753Y1051406D01*
X523914Y1050097D01*
X524665Y1049616D01*
X525257Y1048796D01*
X525482Y1047811D01*
X525304Y1046816D01*
X524753Y1045968D01*
X523914Y1045403D01*
X520753Y1044094D01*
X519057Y1042398D01*
X518252Y1041855D01*
X517261Y1041654D01*
X441335Y1041654D01*
X440382Y1041840D01*
X439539Y1042398D01*
X436219Y1045718D01*
X427381Y1045718D01*
X421132Y1039469D01*
X421132Y1030631D01*
X427381Y1024382D01*
X436219Y1024382D01*
X439539Y1027702D01*
X440344Y1028245D01*
X441335Y1028446D01*
X517261Y1028446D01*
X518214Y1028260D01*
X519057Y1027702D01*
X520753Y1026006D01*
X524674Y1024382D01*
X542126Y1024382D01*
X546047Y1026006D01*
X549048Y1029007D01*
X550672Y1032928D01*
X550672Y1037172D01*
X549048Y1041093D01*
X546047Y1044094D01*
X542886Y1045403D01*
X542135Y1045884D01*
X541543Y1046704D01*
X541318Y1047689D01*
X541496Y1048684D01*
X542047Y1049532D01*
X542886Y1050097D01*
X546047Y1051406D01*
X549048Y1054407D01*
X550672Y1058328D01*
X550672Y1062572D01*
X549048Y1066493D01*
X546047Y1069494D01*
X542126Y1071118D01*
X529894Y1071118D01*
X529016Y1071274D01*
X528156Y1071806D01*
X527571Y1072630D01*
X527354Y1073618D01*
X527539Y1074611D01*
X528098Y1075454D01*
X530605Y1077962D01*
X532384Y1082256D01*
X532384Y1099784D01*
X532540Y1100662D01*
X533072Y1101522D01*
X533896Y1102107D01*
X534884Y1102324D01*
X535877Y1102138D01*
X536720Y1101580D01*
X640606Y997694D01*
X641149Y996889D01*
X641350Y995898D01*
X641350Y724061D01*
X641372Y723890D01*
X641430Y723820D01*
X678706Y686544D01*
X679249Y685739D01*
X679450Y684748D01*
X679450Y128052D01*
X679264Y127099D01*
X678706Y126256D01*
X565894Y13444D01*
X565089Y12901D01*
G37*
%LPC*%
G36*
X117540Y940636D02*
X122260Y940636D01*
X126620Y942442D01*
X129958Y945780D01*
X130253Y946493D01*
X130734Y947244D01*
X131554Y947836D01*
X132539Y948060D01*
X133535Y947883D01*
X134382Y947331D01*
X134947Y946493D01*
X135242Y945780D01*
X138580Y942442D01*
X142940Y940636D01*
X147660Y940636D01*
X152020Y942442D01*
X155358Y945780D01*
X155653Y946493D01*
X156134Y947244D01*
X156954Y947836D01*
X157939Y948060D01*
X158935Y947883D01*
X159782Y947331D01*
X160347Y946493D01*
X160642Y945780D01*
X163980Y942442D01*
X168340Y940636D01*
X173060Y940636D01*
X177420Y942442D01*
X180758Y945780D01*
X181053Y946493D01*
X181534Y947244D01*
X182354Y947836D01*
X183339Y948060D01*
X184335Y947883D01*
X185182Y947331D01*
X185747Y946493D01*
X186042Y945780D01*
X189380Y942442D01*
X193740Y940636D01*
X198460Y940636D01*
X202820Y942442D01*
X206158Y945780D01*
X206453Y946493D01*
X206934Y947244D01*
X207754Y947836D01*
X208739Y948060D01*
X209735Y947883D01*
X210582Y947331D01*
X211147Y946493D01*
X211442Y945780D01*
X214780Y942442D01*
X219140Y940636D01*
X223860Y940636D01*
X228220Y942442D01*
X231558Y945780D01*
X232678Y948484D01*
X233159Y949235D01*
X233978Y949827D01*
X234964Y950052D01*
X235959Y949874D01*
X236806Y949323D01*
X237371Y948484D01*
X238134Y946643D01*
X241043Y943734D01*
X244843Y942160D01*
X246138Y942160D01*
X246138Y962840D01*
X244843Y962840D01*
X241043Y961266D01*
X238134Y958357D01*
X237371Y956516D01*
X236891Y955765D01*
X236071Y955173D01*
X235086Y954948D01*
X234090Y955126D01*
X233243Y955677D01*
X232678Y956516D01*
X231558Y959220D01*
X228848Y961930D01*
X228305Y962736D01*
X228104Y963726D01*
X228104Y979712D01*
X228290Y980666D01*
X228848Y981509D01*
X249760Y1002421D01*
X250473Y1002922D01*
X251455Y1003163D01*
X252453Y1003001D01*
X253309Y1002463D01*
X253887Y1001634D01*
X254096Y1000645D01*
X253903Y999653D01*
X253746Y999274D01*
X253746Y994626D01*
X255525Y990332D01*
X258812Y987045D01*
X263106Y985266D01*
X282994Y985266D01*
X287288Y987045D01*
X290575Y990332D01*
X292354Y994626D01*
X292354Y999274D01*
X290575Y1003568D01*
X287288Y1006855D01*
X282994Y1008634D01*
X263106Y1008634D01*
X262728Y1008477D01*
X261877Y1008287D01*
X260878Y1008440D01*
X260018Y1008972D01*
X259433Y1009796D01*
X259216Y1010783D01*
X259401Y1011777D01*
X259959Y1012620D01*
X262342Y1015002D01*
X263147Y1015545D01*
X264138Y1015746D01*
X305965Y1015746D01*
X306824Y1015596D01*
X307688Y1015072D01*
X308280Y1014252D01*
X308505Y1013267D01*
X308327Y1012272D01*
X307776Y1011424D01*
X306937Y1010859D01*
X306281Y1010587D01*
X303863Y1008169D01*
X302554Y1005010D01*
X302554Y1001590D01*
X303894Y998355D01*
X304345Y997686D01*
X304546Y996695D01*
X304546Y995138D01*
X304360Y994184D01*
X303802Y993342D01*
X275569Y965108D01*
X274763Y964565D01*
X273772Y964364D01*
X269940Y964364D01*
X265580Y962558D01*
X262242Y959220D01*
X261122Y956516D01*
X260641Y955765D01*
X259822Y955173D01*
X258836Y954948D01*
X257841Y955126D01*
X256994Y955677D01*
X256429Y956516D01*
X255666Y958357D01*
X252757Y961266D01*
X248957Y962840D01*
X247662Y962840D01*
X247662Y942160D01*
X248957Y942160D01*
X252757Y943734D01*
X255666Y946643D01*
X256429Y948484D01*
X256909Y949235D01*
X257729Y949827D01*
X258715Y950052D01*
X259710Y949874D01*
X260557Y949323D01*
X261122Y948484D01*
X262242Y945780D01*
X265580Y942442D01*
X269940Y940636D01*
X274660Y940636D01*
X279020Y942442D01*
X282358Y945780D01*
X282653Y946493D01*
X283134Y947244D01*
X283954Y947836D01*
X284939Y948060D01*
X285935Y947883D01*
X286782Y947331D01*
X287347Y946493D01*
X287642Y945780D01*
X290980Y942442D01*
X295340Y940636D01*
X300060Y940636D01*
X304420Y942442D01*
X307758Y945780D01*
X308053Y946493D01*
X308534Y947244D01*
X309354Y947836D01*
X310339Y948060D01*
X311335Y947883D01*
X312182Y947331D01*
X312747Y946493D01*
X313042Y945780D01*
X316380Y942442D01*
X320740Y940636D01*
X325460Y940636D01*
X329820Y942442D01*
X333158Y945780D01*
X333453Y946493D01*
X333934Y947244D01*
X334754Y947836D01*
X335739Y948060D01*
X336735Y947883D01*
X337582Y947331D01*
X338147Y946493D01*
X338442Y945780D01*
X341780Y942442D01*
X346140Y940636D01*
X350860Y940636D01*
X355220Y942442D01*
X358558Y945780D01*
X358853Y946493D01*
X359334Y947244D01*
X360154Y947836D01*
X361139Y948060D01*
X362135Y947883D01*
X362982Y947331D01*
X363547Y946493D01*
X363842Y945780D01*
X367180Y942442D01*
X371540Y940636D01*
X376260Y940636D01*
X380620Y942442D01*
X383958Y945780D01*
X384253Y946493D01*
X384734Y947244D01*
X385554Y947836D01*
X386539Y948060D01*
X387535Y947883D01*
X388382Y947331D01*
X388947Y946493D01*
X389242Y945780D01*
X392580Y942442D01*
X396940Y940636D01*
X401660Y940636D01*
X406020Y942442D01*
X409358Y945780D01*
X409653Y946493D01*
X410134Y947244D01*
X410954Y947836D01*
X411939Y948060D01*
X412935Y947883D01*
X413782Y947331D01*
X414347Y946493D01*
X414642Y945780D01*
X417980Y942442D01*
X422340Y940636D01*
X427060Y940636D01*
X431420Y942442D01*
X434758Y945780D01*
X435053Y946493D01*
X435534Y947244D01*
X436354Y947836D01*
X437339Y948060D01*
X438335Y947883D01*
X439182Y947331D01*
X439747Y946493D01*
X440042Y945780D01*
X443380Y942442D01*
X447740Y940636D01*
X452460Y940636D01*
X456820Y942442D01*
X460158Y945780D01*
X460453Y946493D01*
X460934Y947244D01*
X461754Y947836D01*
X462739Y948060D01*
X463735Y947883D01*
X464582Y947331D01*
X465147Y946493D01*
X465442Y945780D01*
X468780Y942442D01*
X473140Y940636D01*
X477860Y940636D01*
X482220Y942442D01*
X485558Y945780D01*
X485853Y946493D01*
X486334Y947244D01*
X487154Y947836D01*
X488139Y948060D01*
X489135Y947883D01*
X489982Y947331D01*
X490547Y946493D01*
X490842Y945780D01*
X494180Y942442D01*
X498540Y940636D01*
X503260Y940636D01*
X507620Y942442D01*
X510958Y945780D01*
X511253Y946493D01*
X511734Y947244D01*
X512554Y947836D01*
X513539Y948060D01*
X514535Y947883D01*
X515382Y947331D01*
X515947Y946493D01*
X516242Y945780D01*
X519580Y942442D01*
X523940Y940636D01*
X528660Y940636D01*
X533020Y942442D01*
X536358Y945780D01*
X536653Y946493D01*
X537134Y947244D01*
X537954Y947836D01*
X538939Y948060D01*
X539935Y947883D01*
X540782Y947331D01*
X541347Y946493D01*
X541642Y945780D01*
X544980Y942442D01*
X549340Y940636D01*
X554060Y940636D01*
X558420Y942442D01*
X561758Y945780D01*
X563564Y950140D01*
X563564Y954860D01*
X561758Y959220D01*
X558420Y962558D01*
X554060Y964364D01*
X549340Y964364D01*
X544980Y962558D01*
X541642Y959220D01*
X541347Y958507D01*
X540866Y957756D01*
X540046Y957165D01*
X539061Y956940D01*
X538066Y957117D01*
X537218Y957669D01*
X536653Y958507D01*
X536358Y959220D01*
X533020Y962558D01*
X528660Y964364D01*
X523940Y964364D01*
X519580Y962558D01*
X516242Y959220D01*
X515947Y958507D01*
X515466Y957756D01*
X514646Y957165D01*
X513661Y956940D01*
X512666Y957117D01*
X511818Y957669D01*
X511253Y958507D01*
X510958Y959220D01*
X507620Y962558D01*
X503260Y964364D01*
X498540Y964364D01*
X494180Y962558D01*
X490842Y959220D01*
X490547Y958507D01*
X490066Y957756D01*
X489246Y957165D01*
X488261Y956940D01*
X487266Y957117D01*
X486418Y957669D01*
X485853Y958507D01*
X485558Y959220D01*
X482220Y962558D01*
X477860Y964364D01*
X473140Y964364D01*
X468780Y962558D01*
X465442Y959220D01*
X465147Y958507D01*
X464666Y957756D01*
X463846Y957165D01*
X462861Y956940D01*
X461866Y957117D01*
X461018Y957669D01*
X460453Y958507D01*
X460158Y959220D01*
X456820Y962558D01*
X452460Y964364D01*
X447740Y964364D01*
X443380Y962558D01*
X440042Y959220D01*
X439747Y958507D01*
X439266Y957756D01*
X438446Y957165D01*
X437461Y956940D01*
X436466Y957117D01*
X435618Y957669D01*
X435053Y958507D01*
X434758Y959220D01*
X431420Y962558D01*
X427060Y964364D01*
X422340Y964364D01*
X417980Y962558D01*
X414642Y959220D01*
X414347Y958507D01*
X413866Y957756D01*
X413046Y957165D01*
X412061Y956940D01*
X411066Y957117D01*
X410218Y957669D01*
X409653Y958507D01*
X409358Y959220D01*
X406020Y962558D01*
X401660Y964364D01*
X396940Y964364D01*
X396042Y963992D01*
X395192Y963802D01*
X394193Y963955D01*
X393333Y964486D01*
X392748Y965311D01*
X392531Y966298D01*
X392716Y967292D01*
X393274Y968135D01*
X419100Y993960D01*
X419905Y994503D01*
X420727Y994670D01*
X423969Y996013D01*
X426387Y998431D01*
X427696Y1001590D01*
X427696Y1005010D01*
X426387Y1008169D01*
X423969Y1010587D01*
X420810Y1011896D01*
X417390Y1011896D01*
X414231Y1010587D01*
X411813Y1008169D01*
X410473Y1004934D01*
X410318Y1004142D01*
X409760Y1003300D01*
X370676Y964215D01*
X369852Y963665D01*
X367180Y962558D01*
X363842Y959220D01*
X363547Y958507D01*
X363066Y957756D01*
X362246Y957165D01*
X361261Y956940D01*
X360266Y957117D01*
X359418Y957669D01*
X358853Y958507D01*
X358558Y959220D01*
X357380Y960398D01*
X356853Y961167D01*
X356636Y962154D01*
X356822Y963148D01*
X357380Y963990D01*
X387350Y993960D01*
X388155Y994503D01*
X388977Y994670D01*
X392219Y996013D01*
X394637Y998431D01*
X395946Y1001590D01*
X395946Y1005010D01*
X394637Y1008169D01*
X392219Y1010587D01*
X389060Y1011896D01*
X385640Y1011896D01*
X382481Y1010587D01*
X380063Y1008169D01*
X378723Y1004934D01*
X378568Y1004142D01*
X378010Y1003300D01*
X342901Y968191D01*
X341896Y965764D01*
X341896Y963726D01*
X341710Y962773D01*
X341152Y961930D01*
X338442Y959220D01*
X338147Y958507D01*
X337666Y957756D01*
X336846Y957165D01*
X335861Y956940D01*
X334866Y957117D01*
X334018Y957669D01*
X333453Y958507D01*
X333158Y959220D01*
X329820Y962558D01*
X325460Y964364D01*
X325036Y964364D01*
X324158Y964520D01*
X323298Y965052D01*
X322713Y965876D01*
X322496Y966864D01*
X322681Y967857D01*
X323240Y968700D01*
X348500Y993960D01*
X349305Y994503D01*
X350296Y994704D01*
X350960Y994704D01*
X354119Y996013D01*
X356537Y998431D01*
X357846Y1001590D01*
X357846Y1005010D01*
X356537Y1008169D01*
X354119Y1010587D01*
X350960Y1011896D01*
X347688Y1011896D01*
X346830Y1012046D01*
X346430Y1012288D01*
X346427Y1012272D01*
X345876Y1011424D01*
X345037Y1010859D01*
X344381Y1010587D01*
X341963Y1008169D01*
X340694Y1005107D01*
X340144Y1004283D01*
X321025Y985165D01*
X320312Y984663D01*
X319331Y984423D01*
X318333Y984585D01*
X317477Y985122D01*
X316899Y985952D01*
X316689Y986941D01*
X316883Y987933D01*
X317754Y990036D01*
X317754Y996695D01*
X317940Y997649D01*
X318403Y998348D01*
X319746Y1001590D01*
X319746Y1005010D01*
X318437Y1008169D01*
X316019Y1010587D01*
X315363Y1010859D01*
X314626Y1011326D01*
X314029Y1012141D01*
X313796Y1013125D01*
X313965Y1014122D01*
X314510Y1014973D01*
X315344Y1015545D01*
X316335Y1015746D01*
X344065Y1015746D01*
X344924Y1015596D01*
X345324Y1015354D01*
X345326Y1015371D01*
X345878Y1016218D01*
X346581Y1016691D01*
X353528Y1023638D01*
X354333Y1024181D01*
X355324Y1024382D01*
X360019Y1024382D01*
X366268Y1030631D01*
X366268Y1039469D01*
X360019Y1045718D01*
X351181Y1045718D01*
X344932Y1039469D01*
X344932Y1034774D01*
X344746Y1033820D01*
X344188Y1032978D01*
X340909Y1029698D01*
X340103Y1029155D01*
X339112Y1028954D01*
X259036Y1028954D01*
X256609Y1027949D01*
X237920Y1009259D01*
X237207Y1008758D01*
X236225Y1008518D01*
X235227Y1008679D01*
X234371Y1009217D01*
X233793Y1010046D01*
X233584Y1011035D01*
X233777Y1012028D01*
X233934Y1012406D01*
X233934Y1032294D01*
X232155Y1036588D01*
X228868Y1039875D01*
X224574Y1041654D01*
X224324Y1041654D01*
X223428Y1041818D01*
X222572Y1042356D01*
X221994Y1043185D01*
X221785Y1044174D01*
X221978Y1045166D01*
X222504Y1046436D01*
X222504Y1073608D01*
X222690Y1074562D01*
X223248Y1075404D01*
X225805Y1077962D01*
X227078Y1081035D01*
X227559Y1081786D01*
X228378Y1082377D01*
X229364Y1082602D01*
X230359Y1082424D01*
X231206Y1081873D01*
X231771Y1081035D01*
X232687Y1078825D01*
X235545Y1075967D01*
X239279Y1074420D01*
X240538Y1074420D01*
X240538Y1109980D01*
X239279Y1109980D01*
X235545Y1108433D01*
X232687Y1105575D01*
X231771Y1103365D01*
X231291Y1102614D01*
X230471Y1102023D01*
X229486Y1101798D01*
X228490Y1101976D01*
X227643Y1102527D01*
X227078Y1103365D01*
X225805Y1106438D01*
X222518Y1109725D01*
X218224Y1111504D01*
X213576Y1111504D01*
X209282Y1109725D01*
X205995Y1106438D01*
X205547Y1105357D01*
X205066Y1104606D01*
X204246Y1104014D01*
X203261Y1103789D01*
X202266Y1103967D01*
X201418Y1104518D01*
X200853Y1105357D01*
X200405Y1106438D01*
X197118Y1109725D01*
X192824Y1111504D01*
X188176Y1111504D01*
X183882Y1109725D01*
X180595Y1106438D01*
X180147Y1105357D01*
X179666Y1104606D01*
X178846Y1104014D01*
X177861Y1103789D01*
X176866Y1103967D01*
X176018Y1104518D01*
X175453Y1105357D01*
X175005Y1106438D01*
X171718Y1109725D01*
X167424Y1111504D01*
X162776Y1111504D01*
X158482Y1109725D01*
X155195Y1106438D01*
X153922Y1103365D01*
X153441Y1102614D01*
X152622Y1102023D01*
X151636Y1101798D01*
X150641Y1101976D01*
X149794Y1102527D01*
X149229Y1103365D01*
X148313Y1105575D01*
X145455Y1108433D01*
X141721Y1109980D01*
X140462Y1109980D01*
X140462Y1074420D01*
X141721Y1074420D01*
X145455Y1075967D01*
X148313Y1078825D01*
X149229Y1081035D01*
X149709Y1081786D01*
X150529Y1082377D01*
X151515Y1082602D01*
X152510Y1082424D01*
X153357Y1081873D01*
X153922Y1081035D01*
X155195Y1077962D01*
X158482Y1074675D01*
X162776Y1072896D01*
X167424Y1072896D01*
X171718Y1074675D01*
X175005Y1077962D01*
X175453Y1079043D01*
X175934Y1079794D01*
X176754Y1080386D01*
X177739Y1080611D01*
X178735Y1080433D01*
X179582Y1079882D01*
X180147Y1079043D01*
X180595Y1077962D01*
X183882Y1074675D01*
X188176Y1072896D01*
X192824Y1072896D01*
X197118Y1074675D01*
X200405Y1077962D01*
X200853Y1079043D01*
X201334Y1079794D01*
X202154Y1080386D01*
X203139Y1080611D01*
X204135Y1080433D01*
X204982Y1079882D01*
X205547Y1079043D01*
X205995Y1077962D01*
X208552Y1075404D01*
X209095Y1074599D01*
X209296Y1073608D01*
X209296Y1071031D01*
X209132Y1070134D01*
X208595Y1069278D01*
X207765Y1068700D01*
X206776Y1068491D01*
X205784Y1068684D01*
X204910Y1069046D01*
X201490Y1069046D01*
X198331Y1067737D01*
X195913Y1065319D01*
X194573Y1062084D01*
X194418Y1061292D01*
X193860Y1060450D01*
X169459Y1036048D01*
X168653Y1035505D01*
X167662Y1035304D01*
X119336Y1035304D01*
X116909Y1034299D01*
X107951Y1025340D01*
X107145Y1024797D01*
X106323Y1024630D01*
X103081Y1023287D01*
X100663Y1020869D01*
X99354Y1017710D01*
X99354Y1014290D01*
X100663Y1011131D01*
X103081Y1008713D01*
X106240Y1007404D01*
X109660Y1007404D01*
X112819Y1008713D01*
X115237Y1011131D01*
X116578Y1014366D01*
X116732Y1015158D01*
X117290Y1016001D01*
X122642Y1021352D01*
X123447Y1021895D01*
X124438Y1022096D01*
X172764Y1022096D01*
X175191Y1023101D01*
X180625Y1028535D01*
X181338Y1029037D01*
X182319Y1029277D01*
X183317Y1029116D01*
X184173Y1028578D01*
X184752Y1027748D01*
X184961Y1026759D01*
X184767Y1025767D01*
X183896Y1023664D01*
X183896Y1000738D01*
X183710Y999784D01*
X183152Y998942D01*
X180576Y996365D01*
X179863Y995864D01*
X178881Y995623D01*
X177883Y995785D01*
X177027Y996323D01*
X176449Y997152D01*
X176240Y998141D01*
X176433Y999133D01*
X177165Y1000900D01*
X177165Y1005700D01*
X175328Y1010134D01*
X171934Y1013528D01*
X167500Y1015365D01*
X162700Y1015365D01*
X158266Y1013528D01*
X154872Y1010134D01*
X154247Y1008627D01*
X153753Y1007861D01*
X152929Y1007276D01*
X151941Y1007059D01*
X150947Y1007244D01*
X150105Y1007803D01*
X144066Y1013841D01*
X140462Y1013841D01*
X140462Y992759D01*
X144066Y992759D01*
X150105Y998797D01*
X150854Y999316D01*
X151840Y999541D01*
X152835Y999363D01*
X153682Y998812D01*
X154247Y997973D01*
X154872Y996466D01*
X158266Y993072D01*
X162700Y991235D01*
X167500Y991235D01*
X169267Y991967D01*
X170117Y992157D01*
X171116Y992004D01*
X171976Y991473D01*
X172561Y990648D01*
X172778Y989661D01*
X172593Y988667D01*
X172035Y987824D01*
X169459Y985248D01*
X168653Y984705D01*
X167662Y984504D01*
X157436Y984504D01*
X155009Y983499D01*
X139701Y968191D01*
X138696Y965764D01*
X138696Y963726D01*
X138510Y962773D01*
X137952Y961930D01*
X135242Y959220D01*
X134947Y958507D01*
X134466Y957756D01*
X133646Y957165D01*
X132661Y956940D01*
X131666Y957117D01*
X130818Y957669D01*
X130253Y958507D01*
X129958Y959220D01*
X126620Y962558D01*
X122260Y964364D01*
X117540Y964364D01*
X113180Y962558D01*
X109842Y959220D01*
X108722Y956516D01*
X108241Y955765D01*
X107422Y955173D01*
X106436Y954948D01*
X105441Y955126D01*
X104594Y955677D01*
X104029Y956516D01*
X103266Y958357D01*
X100357Y961266D01*
X96557Y962840D01*
X95262Y962840D01*
X95262Y942160D01*
X96557Y942160D01*
X100357Y943734D01*
X103266Y946643D01*
X104029Y948484D01*
X104509Y949235D01*
X105329Y949827D01*
X106315Y950052D01*
X107310Y949874D01*
X108157Y949323D01*
X108722Y948484D01*
X109842Y945780D01*
X113180Y942442D01*
X117540Y940636D01*
G37*
G36*
X129540Y1092962D02*
X138938Y1092962D01*
X138938Y1109980D01*
X137679Y1109980D01*
X133945Y1108433D01*
X131087Y1105575D01*
X129540Y1101841D01*
X129540Y1092962D01*
G37*
G36*
X137679Y1074420D02*
X138938Y1074420D01*
X138938Y1091438D01*
X129540Y1091438D01*
X129540Y1082559D01*
X131087Y1078825D01*
X133945Y1075967D01*
X137679Y1074420D01*
G37*
G36*
X160681Y1043432D02*
X169519Y1043432D01*
X175768Y1049681D01*
X175768Y1058519D01*
X169519Y1064768D01*
X160681Y1064768D01*
X154432Y1058519D01*
X154432Y1049681D01*
X160681Y1043432D01*
G37*
G36*
X140462Y1054862D02*
X148844Y1054862D01*
X148844Y1057888D01*
X143488Y1063244D01*
X140462Y1063244D01*
X140462Y1054862D01*
G37*
G36*
X130556Y1054862D02*
X138938Y1054862D01*
X138938Y1063244D01*
X135912Y1063244D01*
X130556Y1057888D01*
X130556Y1054862D01*
G37*
G36*
X255270Y1048512D02*
X272288Y1048512D01*
X272288Y1057910D01*
X263409Y1057910D01*
X259675Y1056363D01*
X256817Y1053505D01*
X255270Y1049771D01*
X255270Y1048512D01*
G37*
G36*
X273812Y1048512D02*
X290830Y1048512D01*
X290830Y1049771D01*
X289283Y1053505D01*
X286425Y1056363D01*
X282691Y1057910D01*
X273812Y1057910D01*
X273812Y1048512D01*
G37*
G36*
X135912Y1044956D02*
X138938Y1044956D01*
X138938Y1053338D01*
X130556Y1053338D01*
X130556Y1050312D01*
X135912Y1044956D01*
G37*
G36*
X140462Y1044956D02*
X143488Y1044956D01*
X148844Y1050312D01*
X148844Y1053338D01*
X140462Y1053338D01*
X140462Y1044956D01*
G37*
G36*
X273812Y1037590D02*
X282691Y1037590D01*
X286425Y1039137D01*
X289283Y1041995D01*
X290830Y1045729D01*
X290830Y1046988D01*
X273812Y1046988D01*
X273812Y1037590D01*
G37*
G36*
X263409Y1037590D02*
X272288Y1037590D01*
X272288Y1046988D01*
X255270Y1046988D01*
X255270Y1045729D01*
X256817Y1041995D01*
X259675Y1039137D01*
X263409Y1037590D01*
G37*
G36*
X517652Y1010412D02*
X532638Y1010412D01*
X532638Y1018794D01*
X524977Y1018794D01*
X521616Y1017402D01*
X519044Y1014830D01*
X517652Y1011469D01*
X517652Y1010412D01*
G37*
G36*
X534162Y1010412D02*
X549148Y1010412D01*
X549148Y1011469D01*
X547756Y1014830D01*
X545184Y1017402D01*
X541823Y1018794D01*
X534162Y1018794D01*
X534162Y1010412D01*
G37*
G36*
X129159Y1004062D02*
X138938Y1004062D01*
X138938Y1013841D01*
X135334Y1013841D01*
X129159Y1007666D01*
X129159Y1004062D01*
G37*
G36*
X534162Y1000506D02*
X541823Y1000506D01*
X545184Y1001898D01*
X547756Y1004470D01*
X549148Y1007831D01*
X549148Y1008888D01*
X534162Y1008888D01*
X534162Y1000506D01*
G37*
G36*
X524977Y1000506D02*
X532638Y1000506D01*
X532638Y1008888D01*
X517652Y1008888D01*
X517652Y1007831D01*
X519044Y1004470D01*
X521616Y1001898D01*
X524977Y1000506D01*
G37*
G36*
X135334Y992759D02*
X138938Y992759D01*
X138938Y1002538D01*
X129159Y1002538D01*
X129159Y998934D01*
X135334Y992759D01*
G37*
G36*
X84160Y953262D02*
X93738Y953262D01*
X93738Y962840D01*
X92443Y962840D01*
X88643Y961266D01*
X85734Y958357D01*
X84160Y954557D01*
X84160Y953262D01*
G37*
G36*
X92443Y942160D02*
X93738Y942160D01*
X93738Y951738D01*
X84160Y951738D01*
X84160Y950443D01*
X85734Y946643D01*
X88643Y943734D01*
X92443Y942160D01*
G37*
G36*
X447740Y686636D02*
X452460Y686636D01*
X456820Y688442D01*
X460158Y691780D01*
X460453Y692493D01*
X460934Y693244D01*
X461754Y693836D01*
X462739Y694060D01*
X463735Y693883D01*
X464582Y693331D01*
X465147Y692493D01*
X465442Y691780D01*
X468780Y688442D01*
X473140Y686636D01*
X477860Y686636D01*
X482220Y688442D01*
X485558Y691780D01*
X485853Y692493D01*
X486334Y693244D01*
X487154Y693836D01*
X488139Y694060D01*
X489135Y693883D01*
X489982Y693331D01*
X490547Y692493D01*
X490842Y691780D01*
X494180Y688442D01*
X498540Y686636D01*
X503260Y686636D01*
X507620Y688442D01*
X510958Y691780D01*
X511253Y692493D01*
X511734Y693244D01*
X512554Y693836D01*
X513539Y694060D01*
X514535Y693883D01*
X515382Y693331D01*
X515947Y692493D01*
X516242Y691780D01*
X519580Y688442D01*
X523940Y686636D01*
X528660Y686636D01*
X533020Y688442D01*
X536358Y691780D01*
X536653Y692493D01*
X537134Y693244D01*
X537954Y693836D01*
X538939Y694060D01*
X539935Y693883D01*
X540782Y693331D01*
X541347Y692493D01*
X541642Y691780D01*
X544980Y688442D01*
X549340Y686636D01*
X554060Y686636D01*
X558420Y688442D01*
X561758Y691780D01*
X563564Y696140D01*
X563564Y700860D01*
X561758Y705220D01*
X558420Y708558D01*
X554060Y710364D01*
X549340Y710364D01*
X544980Y708558D01*
X541642Y705220D01*
X541347Y704507D01*
X540866Y703756D01*
X540046Y703165D01*
X539061Y702940D01*
X538066Y703117D01*
X537218Y703669D01*
X536653Y704507D01*
X536358Y705220D01*
X533020Y708558D01*
X528660Y710364D01*
X523940Y710364D01*
X519580Y708558D01*
X516242Y705220D01*
X515947Y704507D01*
X515466Y703756D01*
X514646Y703165D01*
X513661Y702940D01*
X512666Y703117D01*
X511818Y703669D01*
X511253Y704507D01*
X510958Y705220D01*
X507620Y708558D01*
X503260Y710364D01*
X498540Y710364D01*
X494180Y708558D01*
X490842Y705220D01*
X490547Y704507D01*
X490066Y703756D01*
X489246Y703165D01*
X488261Y702940D01*
X487266Y703117D01*
X486418Y703669D01*
X485853Y704507D01*
X485558Y705220D01*
X482220Y708558D01*
X477860Y710364D01*
X473140Y710364D01*
X468780Y708558D01*
X465442Y705220D01*
X465147Y704507D01*
X464666Y703756D01*
X463846Y703165D01*
X462861Y702940D01*
X461866Y703117D01*
X461018Y703669D01*
X460453Y704507D01*
X460158Y705220D01*
X456820Y708558D01*
X452460Y710364D01*
X447740Y710364D01*
X443380Y708558D01*
X440042Y705220D01*
X438922Y702516D01*
X438441Y701765D01*
X437622Y701173D01*
X436636Y700948D01*
X435641Y701126D01*
X434794Y701677D01*
X434229Y702516D01*
X433466Y704357D01*
X430557Y707266D01*
X426757Y708840D01*
X425462Y708840D01*
X425462Y688160D01*
X426757Y688160D01*
X430557Y689734D01*
X433466Y692643D01*
X434229Y694484D01*
X434709Y695235D01*
X435529Y695827D01*
X436515Y696052D01*
X437510Y695874D01*
X438357Y695323D01*
X438922Y694484D01*
X440042Y691780D01*
X443380Y688442D01*
X447740Y686636D01*
G37*
G36*
X85892Y686636D02*
X103108Y686636D01*
X104602Y687255D01*
X105745Y688398D01*
X106481Y690174D01*
X106975Y690940D01*
X107800Y691525D01*
X108787Y691742D01*
X109781Y691556D01*
X110624Y690998D01*
X113180Y688442D01*
X117540Y686636D01*
X122260Y686636D01*
X126620Y688442D01*
X129958Y691780D01*
X130253Y692493D01*
X130734Y693244D01*
X131554Y693836D01*
X132539Y694060D01*
X133535Y693883D01*
X134382Y693331D01*
X134947Y692493D01*
X135242Y691780D01*
X138580Y688442D01*
X142940Y686636D01*
X147660Y686636D01*
X152020Y688442D01*
X155358Y691780D01*
X155653Y692493D01*
X156134Y693244D01*
X156954Y693836D01*
X157939Y694060D01*
X158935Y693883D01*
X159782Y693331D01*
X160347Y692493D01*
X160642Y691780D01*
X163980Y688442D01*
X168340Y686636D01*
X173060Y686636D01*
X177420Y688442D01*
X180758Y691780D01*
X181053Y692493D01*
X181534Y693244D01*
X182354Y693836D01*
X183339Y694060D01*
X184335Y693883D01*
X185182Y693331D01*
X185747Y692493D01*
X186042Y691780D01*
X189380Y688442D01*
X193740Y686636D01*
X198460Y686636D01*
X202820Y688442D01*
X206158Y691780D01*
X206453Y692493D01*
X206934Y693244D01*
X207754Y693836D01*
X208739Y694060D01*
X209735Y693883D01*
X210582Y693331D01*
X211147Y692493D01*
X211442Y691780D01*
X214780Y688442D01*
X219140Y686636D01*
X223860Y686636D01*
X228220Y688442D01*
X231558Y691780D01*
X231853Y692493D01*
X232334Y693244D01*
X233154Y693836D01*
X234139Y694060D01*
X235135Y693883D01*
X235982Y693331D01*
X236547Y692493D01*
X236842Y691780D01*
X240180Y688442D01*
X244540Y686636D01*
X249260Y686636D01*
X253620Y688442D01*
X256958Y691780D01*
X257253Y692493D01*
X257734Y693244D01*
X258554Y693836D01*
X259539Y694060D01*
X260535Y693883D01*
X261382Y693331D01*
X261947Y692493D01*
X262242Y691780D01*
X265580Y688442D01*
X269940Y686636D01*
X274660Y686636D01*
X279020Y688442D01*
X282358Y691780D01*
X282653Y692493D01*
X283134Y693244D01*
X283954Y693836D01*
X284939Y694060D01*
X285935Y693883D01*
X286782Y693331D01*
X287347Y692493D01*
X287642Y691780D01*
X290980Y688442D01*
X295340Y686636D01*
X300060Y686636D01*
X304420Y688442D01*
X307758Y691780D01*
X308053Y692493D01*
X308534Y693244D01*
X309354Y693836D01*
X310339Y694060D01*
X311335Y693883D01*
X312182Y693331D01*
X312747Y692493D01*
X313042Y691780D01*
X316380Y688442D01*
X320740Y686636D01*
X325460Y686636D01*
X329820Y688442D01*
X333158Y691780D01*
X333453Y692493D01*
X333934Y693244D01*
X334754Y693836D01*
X335739Y694060D01*
X336735Y693883D01*
X337582Y693331D01*
X338147Y692493D01*
X338442Y691780D01*
X341780Y688442D01*
X346140Y686636D01*
X350860Y686636D01*
X355220Y688442D01*
X358558Y691780D01*
X358853Y692493D01*
X359334Y693244D01*
X360154Y693836D01*
X361139Y694060D01*
X362135Y693883D01*
X362982Y693331D01*
X363547Y692493D01*
X363842Y691780D01*
X367180Y688442D01*
X371540Y686636D01*
X376260Y686636D01*
X380620Y688442D01*
X383958Y691780D01*
X384253Y692493D01*
X384734Y693244D01*
X385554Y693836D01*
X386539Y694060D01*
X387535Y693883D01*
X388382Y693331D01*
X388947Y692493D01*
X389242Y691780D01*
X392580Y688442D01*
X396940Y686636D01*
X401660Y686636D01*
X406020Y688442D01*
X409358Y691780D01*
X410478Y694484D01*
X410959Y695235D01*
X411778Y695827D01*
X412764Y696052D01*
X413759Y695874D01*
X414606Y695323D01*
X415171Y694484D01*
X415934Y692643D01*
X418843Y689734D01*
X422643Y688160D01*
X423938Y688160D01*
X423938Y708840D01*
X422643Y708840D01*
X418843Y707266D01*
X415934Y704357D01*
X415171Y702516D01*
X414691Y701765D01*
X413871Y701173D01*
X412886Y700948D01*
X411890Y701126D01*
X411043Y701677D01*
X410478Y702516D01*
X409358Y705220D01*
X406020Y708558D01*
X401660Y710364D01*
X396940Y710364D01*
X392580Y708558D01*
X389242Y705220D01*
X388947Y704507D01*
X388466Y703756D01*
X387646Y703165D01*
X386661Y702940D01*
X385666Y703117D01*
X384818Y703669D01*
X384253Y704507D01*
X383958Y705220D01*
X380620Y708558D01*
X376260Y710364D01*
X371540Y710364D01*
X367180Y708558D01*
X363842Y705220D01*
X363547Y704507D01*
X363066Y703756D01*
X362246Y703165D01*
X361261Y702940D01*
X360266Y703117D01*
X359418Y703669D01*
X358853Y704507D01*
X358558Y705220D01*
X355220Y708558D01*
X350860Y710364D01*
X346140Y710364D01*
X341780Y708558D01*
X338442Y705220D01*
X338147Y704507D01*
X337666Y703756D01*
X336846Y703165D01*
X335861Y702940D01*
X334866Y703117D01*
X334018Y703669D01*
X333453Y704507D01*
X333158Y705220D01*
X329820Y708558D01*
X325460Y710364D01*
X320740Y710364D01*
X316380Y708558D01*
X313042Y705220D01*
X312747Y704507D01*
X312266Y703756D01*
X311446Y703165D01*
X310461Y702940D01*
X309466Y703117D01*
X308618Y703669D01*
X308053Y704507D01*
X307758Y705220D01*
X304420Y708558D01*
X300060Y710364D01*
X295340Y710364D01*
X290980Y708558D01*
X287642Y705220D01*
X287347Y704507D01*
X286866Y703756D01*
X286046Y703165D01*
X285061Y702940D01*
X284066Y703117D01*
X283218Y703669D01*
X282653Y704507D01*
X282358Y705220D01*
X279020Y708558D01*
X274660Y710364D01*
X269940Y710364D01*
X265580Y708558D01*
X262242Y705220D01*
X261947Y704507D01*
X261466Y703756D01*
X260646Y703165D01*
X259661Y702940D01*
X258666Y703117D01*
X257818Y703669D01*
X257253Y704507D01*
X256958Y705220D01*
X253620Y708558D01*
X249260Y710364D01*
X244540Y710364D01*
X240180Y708558D01*
X236842Y705220D01*
X236547Y704507D01*
X236066Y703756D01*
X235246Y703165D01*
X234261Y702940D01*
X233266Y703117D01*
X232418Y703669D01*
X231853Y704507D01*
X231558Y705220D01*
X228220Y708558D01*
X223860Y710364D01*
X219140Y710364D01*
X214780Y708558D01*
X211442Y705220D01*
X211147Y704507D01*
X210666Y703756D01*
X209846Y703165D01*
X208861Y702940D01*
X207866Y703117D01*
X207018Y703669D01*
X206453Y704507D01*
X206158Y705220D01*
X202820Y708558D01*
X198460Y710364D01*
X193740Y710364D01*
X189380Y708558D01*
X186042Y705220D01*
X185747Y704507D01*
X185266Y703756D01*
X184446Y703165D01*
X183461Y702940D01*
X182466Y703117D01*
X181618Y703669D01*
X181053Y704507D01*
X180758Y705220D01*
X177420Y708558D01*
X173060Y710364D01*
X168340Y710364D01*
X163980Y708558D01*
X160642Y705220D01*
X160347Y704507D01*
X159866Y703756D01*
X159046Y703165D01*
X158061Y702940D01*
X157066Y703117D01*
X156218Y703669D01*
X155653Y704507D01*
X155358Y705220D01*
X152020Y708558D01*
X147660Y710364D01*
X142940Y710364D01*
X138580Y708558D01*
X135242Y705220D01*
X134947Y704507D01*
X134466Y703756D01*
X133646Y703165D01*
X132661Y702940D01*
X131666Y703117D01*
X130818Y703669D01*
X130253Y704507D01*
X129958Y705220D01*
X126620Y708558D01*
X122260Y710364D01*
X117540Y710364D01*
X113180Y708558D01*
X110624Y706002D01*
X109874Y705484D01*
X108888Y705259D01*
X107893Y705436D01*
X107046Y705988D01*
X106481Y706826D01*
X105745Y708602D01*
X104602Y709745D01*
X103108Y710364D01*
X85892Y710364D01*
X84398Y709745D01*
X83255Y708602D01*
X82636Y707108D01*
X82636Y689892D01*
X83255Y688398D01*
X84398Y687255D01*
X85892Y686636D01*
G37*
G36*
X497459Y642112D02*
X518541Y642112D01*
X518541Y645716D01*
X512503Y651755D01*
X511984Y652504D01*
X511759Y653490D01*
X511937Y654485D01*
X512488Y655332D01*
X513327Y655897D01*
X514834Y656522D01*
X518228Y659916D01*
X520065Y664350D01*
X520065Y669150D01*
X518228Y673584D01*
X514834Y676978D01*
X510400Y678815D01*
X505600Y678815D01*
X501166Y676978D01*
X497772Y673584D01*
X495935Y669150D01*
X495935Y664350D01*
X497772Y659916D01*
X501166Y656522D01*
X502673Y655897D01*
X503439Y655403D01*
X504024Y654579D01*
X504241Y653591D01*
X504056Y652597D01*
X503497Y651755D01*
X497459Y645716D01*
X497459Y642112D01*
G37*
G36*
X300381Y656082D02*
X309219Y656082D01*
X315468Y662331D01*
X315468Y671169D01*
X309219Y677418D01*
X300381Y677418D01*
X294132Y671169D01*
X294132Y662331D01*
X300381Y656082D01*
G37*
G36*
X186081Y656082D02*
X194919Y656082D01*
X201168Y662331D01*
X201168Y671169D01*
X194919Y677418D01*
X186081Y677418D01*
X179832Y671169D01*
X179832Y662331D01*
X186081Y656082D01*
G37*
G36*
X440081Y656082D02*
X448919Y656082D01*
X455168Y662331D01*
X455168Y671169D01*
X448919Y677418D01*
X440081Y677418D01*
X433832Y671169D01*
X433832Y662331D01*
X440081Y656082D01*
G37*
G36*
X147981Y656082D02*
X156819Y656082D01*
X163068Y662331D01*
X163068Y671169D01*
X156819Y677418D01*
X147981Y677418D01*
X141732Y671169D01*
X141732Y662331D01*
X147981Y656082D01*
G37*
G36*
X71781Y656082D02*
X80619Y656082D01*
X86868Y662331D01*
X86868Y671169D01*
X80619Y677418D01*
X71781Y677418D01*
X65532Y671169D01*
X65532Y662331D01*
X71781Y656082D01*
G37*
G36*
X376581Y656082D02*
X385419Y656082D01*
X391668Y662331D01*
X391668Y671169D01*
X385419Y677418D01*
X376581Y677418D01*
X370332Y671169D01*
X370332Y662331D01*
X376581Y656082D01*
G37*
G36*
X262281Y656082D02*
X271119Y656082D01*
X277368Y662331D01*
X277368Y671169D01*
X271119Y677418D01*
X262281Y677418D01*
X256032Y671169D01*
X256032Y662331D01*
X262281Y656082D01*
G37*
G36*
X635610Y635862D02*
X659790Y635862D01*
X659790Y637505D01*
X657949Y641948D01*
X654866Y645031D01*
X654348Y645781D01*
X654123Y646767D01*
X654301Y647762D01*
X654852Y648609D01*
X655190Y648837D01*
X659241Y652888D01*
X661314Y657892D01*
X661314Y663308D01*
X659241Y668312D01*
X655412Y672141D01*
X650408Y674214D01*
X644992Y674214D01*
X639988Y672141D01*
X636159Y668312D01*
X634086Y663308D01*
X634086Y657892D01*
X636159Y652888D01*
X640170Y648877D01*
X640475Y648680D01*
X641060Y647855D01*
X641277Y646868D01*
X641092Y645874D01*
X640534Y645031D01*
X637451Y641948D01*
X635610Y637505D01*
X635610Y635862D01*
G37*
G36*
X435356Y642112D02*
X443738Y642112D01*
X443738Y650494D01*
X440712Y650494D01*
X435356Y645138D01*
X435356Y642112D01*
G37*
G36*
X445262Y642112D02*
X453644Y642112D01*
X453644Y645138D01*
X448288Y650494D01*
X445262Y650494D01*
X445262Y642112D01*
G37*
G36*
X385228Y611378D02*
X389472Y611378D01*
X393393Y613002D01*
X396394Y616003D01*
X397703Y619164D01*
X398184Y619915D01*
X399004Y620507D01*
X399989Y620732D01*
X400984Y620554D01*
X401832Y620003D01*
X402397Y619164D01*
X403706Y616003D01*
X406707Y613002D01*
X410628Y611378D01*
X414872Y611378D01*
X418793Y613002D01*
X421794Y616003D01*
X423418Y619924D01*
X423418Y637376D01*
X421794Y641297D01*
X418793Y644298D01*
X414872Y645922D01*
X410628Y645922D01*
X406707Y644298D01*
X403706Y641297D01*
X402397Y638136D01*
X401916Y637385D01*
X401096Y636793D01*
X400111Y636568D01*
X399116Y636746D01*
X398268Y637297D01*
X397703Y638136D01*
X396394Y641297D01*
X393393Y644298D01*
X389472Y645922D01*
X385228Y645922D01*
X381307Y644298D01*
X378306Y641297D01*
X376682Y637376D01*
X376682Y619924D01*
X378306Y616003D01*
X381307Y613002D01*
X385228Y611378D01*
G37*
G36*
X313081Y624332D02*
X321919Y624332D01*
X328168Y630581D01*
X328168Y639419D01*
X321919Y645668D01*
X313081Y645668D01*
X306832Y639419D01*
X306832Y630581D01*
X313081Y624332D01*
G37*
G36*
X236881Y624332D02*
X245719Y624332D01*
X251968Y630581D01*
X251968Y639419D01*
X245719Y645668D01*
X236881Y645668D01*
X230632Y639419D01*
X230632Y630581D01*
X236881Y624332D01*
G37*
G36*
X128931Y624332D02*
X137769Y624332D01*
X144018Y630581D01*
X144018Y639419D01*
X137769Y645668D01*
X128931Y645668D01*
X122682Y639419D01*
X122682Y630581D01*
X128931Y624332D01*
G37*
G36*
X97181Y624332D02*
X106019Y624332D01*
X112268Y630581D01*
X112268Y639419D01*
X106019Y645668D01*
X97181Y645668D01*
X90932Y639419D01*
X90932Y630581D01*
X97181Y624332D01*
G37*
G36*
X352806Y629412D02*
X361188Y629412D01*
X361188Y644398D01*
X360131Y644398D01*
X356770Y643006D01*
X354198Y640434D01*
X352806Y637073D01*
X352806Y629412D01*
G37*
G36*
X362712Y629412D02*
X371094Y629412D01*
X371094Y637073D01*
X369702Y640434D01*
X367130Y643006D01*
X363769Y644398D01*
X362712Y644398D01*
X362712Y629412D01*
G37*
G36*
X200406Y635762D02*
X208788Y635762D01*
X208788Y644144D01*
X205762Y644144D01*
X200406Y638788D01*
X200406Y635762D01*
G37*
G36*
X210312Y635762D02*
X218694Y635762D01*
X218694Y638788D01*
X213338Y644144D01*
X210312Y644144D01*
X210312Y635762D01*
G37*
G36*
X445262Y632206D02*
X448288Y632206D01*
X453644Y637562D01*
X453644Y640588D01*
X445262Y640588D01*
X445262Y632206D01*
G37*
G36*
X440712Y632206D02*
X443738Y632206D01*
X443738Y640588D01*
X435356Y640588D01*
X435356Y637562D01*
X440712Y632206D01*
G37*
G36*
X508762Y630809D02*
X512366Y630809D01*
X518541Y636984D01*
X518541Y640588D01*
X508762Y640588D01*
X508762Y630809D01*
G37*
G36*
X503634Y630809D02*
X507238Y630809D01*
X507238Y640588D01*
X497459Y640588D01*
X497459Y636984D01*
X503634Y630809D01*
G37*
G36*
X637342Y595986D02*
X658058Y595986D01*
X659552Y596605D01*
X660695Y597748D01*
X661314Y599242D01*
X661314Y619958D01*
X660695Y621452D01*
X659552Y622595D01*
X657931Y623267D01*
X657165Y623761D01*
X656581Y624585D01*
X656364Y625573D01*
X656549Y626567D01*
X657107Y627409D01*
X657949Y628252D01*
X659790Y632695D01*
X659790Y634338D01*
X635610Y634338D01*
X635610Y632695D01*
X637451Y628252D01*
X638293Y627409D01*
X638811Y626660D01*
X639036Y625674D01*
X638859Y624679D01*
X638307Y623832D01*
X637469Y623267D01*
X635848Y622595D01*
X634705Y621452D01*
X634086Y619958D01*
X634086Y599242D01*
X634705Y597748D01*
X635848Y596605D01*
X637342Y595986D01*
G37*
G36*
X210312Y625856D02*
X213338Y625856D01*
X218694Y631212D01*
X218694Y634238D01*
X210312Y634238D01*
X210312Y625856D01*
G37*
G36*
X205762Y625856D02*
X208788Y625856D01*
X208788Y634238D01*
X200406Y634238D01*
X200406Y631212D01*
X205762Y625856D01*
G37*
G36*
X362712Y612902D02*
X363769Y612902D01*
X367130Y614294D01*
X369702Y616866D01*
X371094Y620227D01*
X371094Y627888D01*
X362712Y627888D01*
X362712Y612902D01*
G37*
G36*
X360131Y612902D02*
X361188Y612902D01*
X361188Y627888D01*
X352806Y627888D01*
X352806Y620227D01*
X354198Y616866D01*
X356770Y614294D01*
X360131Y612902D01*
G37*
G36*
X529209Y584962D02*
X550291Y584962D01*
X550291Y588566D01*
X544253Y594605D01*
X543734Y595354D01*
X543509Y596340D01*
X543687Y597335D01*
X544238Y598182D01*
X545077Y598747D01*
X546584Y599372D01*
X549978Y602766D01*
X551815Y607200D01*
X551815Y612000D01*
X549978Y616434D01*
X546584Y619828D01*
X542150Y621665D01*
X537350Y621665D01*
X532916Y619828D01*
X529522Y616434D01*
X527685Y612000D01*
X527685Y607200D01*
X529522Y602766D01*
X532916Y599372D01*
X534423Y598747D01*
X535189Y598253D01*
X535774Y597429D01*
X535991Y596441D01*
X535806Y595447D01*
X535247Y594605D01*
X529209Y588566D01*
X529209Y584962D01*
G37*
G36*
X300381Y579882D02*
X309219Y579882D01*
X315468Y586131D01*
X315468Y594969D01*
X309219Y601218D01*
X300381Y601218D01*
X294132Y594969D01*
X294132Y586131D01*
X300381Y579882D01*
G37*
G36*
X408331Y579882D02*
X417169Y579882D01*
X423418Y586131D01*
X423418Y594969D01*
X417169Y601218D01*
X408331Y601218D01*
X402082Y594969D01*
X402082Y586131D01*
X408331Y579882D01*
G37*
G36*
X484531Y579882D02*
X493369Y579882D01*
X499618Y586131D01*
X499618Y594969D01*
X493369Y601218D01*
X484531Y601218D01*
X478282Y594969D01*
X478282Y586131D01*
X484531Y579882D01*
G37*
G36*
X371856Y591312D02*
X380238Y591312D01*
X380238Y599694D01*
X377212Y599694D01*
X371856Y594338D01*
X371856Y591312D01*
G37*
G36*
X381762Y591312D02*
X390144Y591312D01*
X390144Y594338D01*
X384788Y599694D01*
X381762Y599694D01*
X381762Y591312D01*
G37*
G36*
X68352Y573096D02*
X84048Y573096D01*
X85542Y573715D01*
X86685Y574858D01*
X87304Y576352D01*
X87304Y576928D01*
X87454Y577787D01*
X87978Y578651D01*
X88798Y579243D01*
X89783Y579467D01*
X90779Y579290D01*
X91626Y578738D01*
X92178Y577918D01*
X95310Y574787D01*
X99391Y573096D01*
X103809Y573096D01*
X107890Y574787D01*
X111014Y577910D01*
X112778Y582170D01*
X113259Y582921D01*
X114078Y583513D01*
X115064Y583738D01*
X116059Y583560D01*
X116906Y583009D01*
X117471Y582170D01*
X118878Y578773D01*
X121573Y576078D01*
X125094Y574620D01*
X126238Y574620D01*
X126238Y593780D01*
X125094Y593780D01*
X121573Y592322D01*
X118878Y589627D01*
X117471Y586230D01*
X116991Y585479D01*
X116171Y584887D01*
X115186Y584663D01*
X114190Y584840D01*
X113343Y585391D01*
X112778Y586230D01*
X111014Y590490D01*
X107890Y593614D01*
X103809Y595304D01*
X99391Y595304D01*
X95310Y593614D01*
X92180Y590484D01*
X91724Y589764D01*
X90909Y589166D01*
X89925Y588933D01*
X88928Y589103D01*
X88077Y589648D01*
X87505Y590481D01*
X87304Y591472D01*
X87304Y592048D01*
X86685Y593542D01*
X85542Y594685D01*
X84048Y595304D01*
X68352Y595304D01*
X66858Y594685D01*
X65715Y593542D01*
X65096Y592048D01*
X65096Y576352D01*
X65715Y574858D01*
X66858Y573715D01*
X68352Y573096D01*
G37*
G36*
X142820Y584962D02*
X151638Y584962D01*
X151638Y593780D01*
X150494Y593780D01*
X146973Y592322D01*
X144278Y589627D01*
X142820Y586106D01*
X142820Y584962D01*
G37*
G36*
X127762Y584962D02*
X136580Y584962D01*
X136580Y586106D01*
X135122Y589627D01*
X132427Y592322D01*
X128906Y593780D01*
X127762Y593780D01*
X127762Y584962D01*
G37*
G36*
X153162Y584962D02*
X161980Y584962D01*
X161980Y586106D01*
X160522Y589627D01*
X157827Y592322D01*
X154306Y593780D01*
X153162Y593780D01*
X153162Y584962D01*
G37*
G36*
X377212Y581406D02*
X380238Y581406D01*
X380238Y589788D01*
X371856Y589788D01*
X371856Y586762D01*
X377212Y581406D01*
G37*
G36*
X381762Y581406D02*
X384788Y581406D01*
X390144Y586762D01*
X390144Y589788D01*
X381762Y589788D01*
X381762Y581406D01*
G37*
G36*
X127762Y574620D02*
X128906Y574620D01*
X132427Y576078D01*
X135122Y578773D01*
X136580Y582294D01*
X136580Y583438D01*
X127762Y583438D01*
X127762Y574620D01*
G37*
G36*
X540512Y573659D02*
X544116Y573659D01*
X550291Y579834D01*
X550291Y583438D01*
X540512Y583438D01*
X540512Y573659D01*
G37*
G36*
X535384Y573659D02*
X538988Y573659D01*
X538988Y583438D01*
X529209Y583438D01*
X529209Y579834D01*
X535384Y573659D01*
G37*
G36*
X153162Y574620D02*
X154306Y574620D01*
X157827Y576078D01*
X160522Y578773D01*
X161980Y582294D01*
X161980Y583438D01*
X153162Y583438D01*
X153162Y574620D01*
G37*
G36*
X150494Y574620D02*
X151638Y574620D01*
X151638Y583438D01*
X142820Y583438D01*
X142820Y582294D01*
X144278Y578773D01*
X146973Y576078D01*
X150494Y574620D01*
G37*
G36*
X580652Y522296D02*
X596348Y522296D01*
X597842Y522915D01*
X598985Y524058D01*
X599604Y525552D01*
X599604Y541248D01*
X598985Y542742D01*
X597842Y543885D01*
X596348Y544504D01*
X580652Y544504D01*
X579158Y543885D01*
X578015Y542742D01*
X577396Y541248D01*
X577396Y525552D01*
X578015Y524058D01*
X579158Y522915D01*
X580652Y522296D01*
G37*
G36*
X378791Y496896D02*
X383209Y496896D01*
X387290Y498587D01*
X390414Y501710D01*
X392178Y505970D01*
X392659Y506721D01*
X393478Y507313D01*
X394464Y507538D01*
X395459Y507360D01*
X396306Y506809D01*
X396871Y505970D01*
X398278Y502573D01*
X400973Y499878D01*
X404494Y498420D01*
X405638Y498420D01*
X405638Y517580D01*
X404494Y517580D01*
X400973Y516122D01*
X398278Y513427D01*
X396871Y510030D01*
X396391Y509279D01*
X395571Y508687D01*
X394586Y508463D01*
X393590Y508640D01*
X392743Y509191D01*
X392178Y510030D01*
X390414Y514290D01*
X387290Y517414D01*
X383209Y519104D01*
X378791Y519104D01*
X374710Y517414D01*
X371587Y514290D01*
X369896Y510209D01*
X369896Y505791D01*
X371587Y501710D01*
X374710Y498587D01*
X378791Y496896D01*
G37*
G36*
X423952Y496896D02*
X439648Y496896D01*
X441142Y497515D01*
X442285Y498658D01*
X442904Y500152D01*
X442904Y515848D01*
X442285Y517342D01*
X441142Y518485D01*
X439648Y519104D01*
X423952Y519104D01*
X422458Y518485D01*
X421315Y517342D01*
X420696Y515848D01*
X420696Y511290D01*
X420546Y510431D01*
X420022Y509567D01*
X419202Y508975D01*
X418217Y508750D01*
X417222Y508928D01*
X416374Y509479D01*
X415809Y510318D01*
X414522Y513427D01*
X411827Y516122D01*
X408306Y517580D01*
X407162Y517580D01*
X407162Y498420D01*
X408306Y498420D01*
X411827Y499878D01*
X414522Y502573D01*
X415809Y505682D01*
X416276Y506419D01*
X417091Y507016D01*
X418075Y507249D01*
X419072Y507080D01*
X419923Y506535D01*
X420495Y505701D01*
X420696Y504710D01*
X420696Y500152D01*
X421315Y498658D01*
X422458Y497515D01*
X423952Y496896D01*
G37*
G36*
X334840Y448604D02*
X338260Y448604D01*
X341419Y449913D01*
X343837Y452331D01*
X345146Y455490D01*
X345146Y458910D01*
X343806Y462145D01*
X343355Y462814D01*
X343154Y463805D01*
X343154Y501395D01*
X343340Y502349D01*
X343803Y503048D01*
X345146Y506290D01*
X345146Y509710D01*
X343837Y512869D01*
X341419Y515287D01*
X338260Y516596D01*
X334840Y516596D01*
X331681Y515287D01*
X329263Y512869D01*
X327954Y509710D01*
X327954Y506290D01*
X329294Y503055D01*
X329745Y502386D01*
X329946Y501395D01*
X329946Y463805D01*
X329760Y462851D01*
X329297Y462152D01*
X327954Y458910D01*
X327954Y455490D01*
X329263Y452331D01*
X331681Y449913D01*
X334840Y448604D01*
G37*
G36*
X578920Y483362D02*
X587738Y483362D01*
X587738Y492180D01*
X586594Y492180D01*
X583073Y490722D01*
X580378Y488027D01*
X578920Y484506D01*
X578920Y483362D01*
G37*
G36*
X589262Y483362D02*
X598080Y483362D01*
X598080Y484506D01*
X596622Y488027D01*
X593927Y490722D01*
X590406Y492180D01*
X589262Y492180D01*
X589262Y483362D01*
G37*
G36*
X589262Y473020D02*
X590406Y473020D01*
X593927Y474478D01*
X596622Y477173D01*
X598080Y480694D01*
X598080Y481838D01*
X589262Y481838D01*
X589262Y473020D01*
G37*
G36*
X586594Y473020D02*
X587738Y473020D01*
X587738Y481838D01*
X578920Y481838D01*
X578920Y480694D01*
X580378Y477173D01*
X583073Y474478D01*
X586594Y473020D01*
G37*
G36*
X578920Y432562D02*
X587738Y432562D01*
X587738Y441380D01*
X586594Y441380D01*
X583073Y439922D01*
X580378Y437227D01*
X578920Y433706D01*
X578920Y432562D01*
G37*
G36*
X589262Y432562D02*
X598080Y432562D01*
X598080Y433706D01*
X596622Y437227D01*
X593927Y439922D01*
X590406Y441380D01*
X589262Y441380D01*
X589262Y432562D01*
G37*
G36*
X589262Y422220D02*
X590406Y422220D01*
X593927Y423678D01*
X596622Y426373D01*
X598080Y429894D01*
X598080Y431038D01*
X589262Y431038D01*
X589262Y422220D01*
G37*
G36*
X586594Y422220D02*
X587738Y422220D01*
X587738Y431038D01*
X578920Y431038D01*
X578920Y429894D01*
X580378Y426373D01*
X583073Y423678D01*
X586594Y422220D01*
G37*
G36*
X620091Y293696D02*
X624509Y293696D01*
X628590Y295387D01*
X631720Y298516D01*
X632176Y299236D01*
X632991Y299834D01*
X633975Y300067D01*
X634972Y299897D01*
X635823Y299352D01*
X636395Y298519D01*
X636596Y297528D01*
X636596Y296952D01*
X637215Y295458D01*
X638358Y294315D01*
X639852Y293696D01*
X655548Y293696D01*
X657042Y294315D01*
X658185Y295458D01*
X658804Y296952D01*
X658804Y312648D01*
X658185Y314142D01*
X657042Y315285D01*
X655548Y315904D01*
X639852Y315904D01*
X638358Y315285D01*
X637215Y314142D01*
X636596Y312648D01*
X636596Y312072D01*
X636446Y311213D01*
X635922Y310349D01*
X635102Y309757D01*
X634117Y309533D01*
X633122Y309710D01*
X632274Y310262D01*
X631722Y311082D01*
X628590Y314214D01*
X624509Y315904D01*
X620091Y315904D01*
X616010Y314214D01*
X612887Y311090D01*
X611122Y306830D01*
X610641Y306079D01*
X609822Y305487D01*
X608836Y305263D01*
X607841Y305440D01*
X606994Y305991D01*
X606429Y306830D01*
X605022Y310227D01*
X602327Y312922D01*
X598806Y314380D01*
X597662Y314380D01*
X597662Y295220D01*
X598806Y295220D01*
X602327Y296678D01*
X605022Y299373D01*
X606429Y302770D01*
X606909Y303521D01*
X607729Y304113D01*
X608715Y304338D01*
X609710Y304160D01*
X610557Y303609D01*
X611122Y302770D01*
X612887Y298510D01*
X616010Y295387D01*
X620091Y293696D01*
G37*
G36*
X587320Y305562D02*
X596138Y305562D01*
X596138Y314380D01*
X594994Y314380D01*
X591473Y312922D01*
X588778Y310227D01*
X587320Y306706D01*
X587320Y305562D01*
G37*
G36*
X594994Y295220D02*
X596138Y295220D01*
X596138Y304038D01*
X587320Y304038D01*
X587320Y302894D01*
X588778Y299373D01*
X591473Y296678D01*
X594994Y295220D01*
G37*
%LPD*%
D10*
X444500Y641350D03*
X444500Y666750D03*
D11*
X508000Y641350D03*
D12*
X508000Y666750D03*
D13*
X165100Y1054100D03*
X139700Y1054100D03*
D14*
X139700Y1003300D03*
D12*
X165100Y1003300D03*
D15*
X38100Y1092710D03*
X883720Y1092710D03*
X882650Y38100D03*
X38100Y38100D03*
D16*
X520700Y1084580D02*
X520700Y1099820D01*
X495300Y1099820D02*
X495300Y1084580D01*
X469900Y1084580D02*
X469900Y1099820D01*
X444500Y1099820D02*
X444500Y1084580D01*
X419100Y1084580D02*
X419100Y1099820D01*
X393700Y1099820D02*
X393700Y1084580D01*
X368300Y1084580D02*
X368300Y1099820D01*
X342900Y1099820D02*
X342900Y1084580D01*
X317500Y1084580D02*
X317500Y1099820D01*
X292100Y1099820D02*
X292100Y1084580D01*
X266700Y1084580D02*
X266700Y1099820D01*
X241300Y1099820D02*
X241300Y1084580D01*
X215900Y1084580D02*
X215900Y1099820D01*
X190500Y1099820D02*
X190500Y1084580D01*
X165100Y1084580D02*
X165100Y1099820D01*
X139700Y1099820D02*
X139700Y1084580D01*
D17*
X526796Y1060450D02*
X540004Y1060450D01*
X540004Y1009650D02*
X526796Y1009650D01*
X526796Y1035050D02*
X540004Y1035050D01*
X412750Y635254D02*
X412750Y622046D01*
X361950Y622046D02*
X361950Y635254D01*
X387350Y635254D02*
X387350Y622046D01*
D16*
X222250Y1014730D02*
X222250Y1029970D01*
X265430Y996950D02*
X280670Y996950D01*
X280670Y1047750D02*
X265430Y1047750D01*
D18*
X133350Y635000D03*
X209550Y635000D03*
X355600Y1035050D03*
X431800Y1035050D03*
X304800Y666750D03*
X381000Y666750D03*
D13*
X488950Y590550D03*
X412750Y590550D03*
X317500Y635000D03*
X241300Y635000D03*
X266700Y666750D03*
X190500Y666750D03*
X381000Y590550D03*
X304800Y590550D03*
X101600Y635000D03*
X25400Y635000D03*
D18*
X76200Y666750D03*
X152400Y666750D03*
D19*
X94500Y698500D03*
D20*
X119900Y698500D03*
X551700Y698500D03*
X145300Y698500D03*
X170700Y698500D03*
X196100Y698500D03*
X221500Y698500D03*
X246900Y698500D03*
X272300Y698500D03*
X297700Y698500D03*
X323100Y698500D03*
X348500Y698500D03*
X373900Y698500D03*
X399300Y698500D03*
X424700Y698500D03*
X450100Y698500D03*
X475500Y698500D03*
X500900Y698500D03*
X526300Y698500D03*
X94500Y952500D03*
X119900Y952500D03*
X145300Y952500D03*
X170700Y952500D03*
X196100Y952500D03*
X221500Y952500D03*
X246900Y952500D03*
X272300Y952500D03*
X297700Y952500D03*
X323100Y952500D03*
X348500Y952500D03*
X373900Y952500D03*
X399300Y952500D03*
X424700Y952500D03*
X450100Y952500D03*
X475500Y952500D03*
X500900Y952500D03*
X526300Y952500D03*
X551700Y952500D03*
D21*
X647700Y609600D03*
D22*
X647700Y635100D03*
X647700Y660600D03*
D23*
X867900Y381000D03*
X867900Y431800D03*
X588500Y431800D03*
X588500Y482600D03*
D24*
X588500Y533400D03*
D25*
X825246Y314706D02*
X825246Y294894D01*
X774954Y294894D02*
X774954Y314706D01*
D24*
X76200Y584200D03*
D23*
X101600Y584200D03*
X152400Y584200D03*
X127000Y584200D03*
X406400Y508000D03*
X381000Y508000D03*
D24*
X431800Y508000D03*
D23*
X622300Y304800D03*
D24*
X647700Y304800D03*
D23*
X596900Y304800D03*
D11*
X539750Y584200D03*
D12*
X539750Y609600D03*
D26*
X424700Y698500D02*
X424700Y710450D01*
X424700Y698500D02*
X424700Y680200D01*
D27*
X425450Y679450D01*
D26*
X406400Y520700D02*
X406400Y508000D01*
X406400Y495300D01*
X628650Y635000D02*
X647600Y635000D01*
X647700Y635100D02*
X666650Y635100D01*
D27*
X666750Y635000D01*
D26*
X241300Y1073150D02*
X241300Y1092200D01*
X241300Y1111250D01*
D28*
X94500Y952500D02*
X82550Y952500D01*
X94500Y952500D02*
X94500Y939050D01*
X94500Y952500D02*
X94500Y964450D01*
X127000Y1003300D02*
X139700Y1003300D01*
D29*
X533400Y1009650D02*
X552450Y1009650D01*
X533400Y1009650D02*
X514350Y1009650D01*
X533400Y1009650D02*
X533400Y996950D01*
X533400Y1009650D02*
X533400Y1020318D01*
D28*
X539750Y584200D02*
X527050Y584200D01*
X539750Y584200D02*
X552450Y584200D01*
X539750Y584200D02*
X539750Y571500D01*
D29*
X381000Y571500D02*
X381000Y590550D01*
X381000Y603250D01*
X381000Y590550D02*
X393700Y590550D01*
X381000Y590550D02*
X368300Y590550D01*
X372618Y628650D02*
X361950Y628650D01*
X349250Y628650D01*
X361950Y628650D02*
X361950Y609600D01*
X361950Y628650D02*
X361950Y647700D01*
X209550Y635000D02*
X196850Y635000D01*
X209550Y635000D02*
X222250Y635000D01*
X209550Y635000D02*
X209550Y647700D01*
X209550Y635000D02*
X209550Y622300D01*
X139700Y1054100D02*
X127000Y1054100D01*
X139700Y1054100D02*
X139700Y1041400D01*
X139700Y1054100D02*
X150368Y1054100D01*
X273050Y1047750D02*
X298450Y1047750D01*
X273050Y1047750D02*
X247650Y1047750D01*
X273050Y1047750D02*
X273050Y1060450D01*
X273050Y1047750D02*
X273050Y1035050D01*
D27*
X246900Y970800D02*
X246900Y952500D01*
X246900Y970800D02*
X247650Y971550D01*
X246900Y952500D02*
X246900Y939050D01*
X241300Y933450D01*
D28*
X139700Y1003300D02*
X139700Y1016000D01*
X139700Y1003300D02*
X139700Y990600D01*
X508000Y641350D02*
X520700Y641350D01*
X508000Y641350D02*
X495300Y641350D01*
X508000Y641350D02*
X508000Y628650D01*
D29*
X457200Y641350D02*
X444500Y641350D01*
X431800Y641350D01*
X444500Y641350D02*
X444500Y652018D01*
X444500Y641350D02*
X444500Y628650D01*
D28*
X171450Y584200D02*
X127000Y584200D01*
D29*
X152400Y584200D02*
X152400Y596900D01*
X152400Y584200D02*
X152400Y571500D01*
D28*
X127000Y571500D02*
X127000Y584200D01*
X127000Y596900D01*
D29*
X588500Y482600D02*
X603250Y482600D01*
X588500Y482600D02*
X571500Y482600D01*
X588500Y482600D02*
X588500Y493250D01*
X588500Y482600D02*
X588500Y467850D01*
D27*
X584200Y463550D01*
D29*
X588500Y442450D02*
X588500Y431800D01*
X588500Y417050D01*
D27*
X584200Y412750D01*
D29*
X588500Y431800D02*
X603250Y431800D01*
X588500Y431800D02*
X571500Y431800D01*
D28*
X596900Y317500D02*
X596900Y304800D01*
X596900Y292100D01*
X596900Y304800D02*
X584200Y304800D01*
X139700Y1092200D02*
X127000Y1092200D01*
X139700Y1092200D02*
X139700Y1111250D01*
X139700Y1092200D02*
X139700Y1073150D01*
D29*
X139700Y1066800D02*
X139700Y1054100D01*
D30*
X215900Y1047750D02*
X215900Y1092200D01*
X215900Y1047750D02*
X190500Y1022350D01*
X190500Y996950D01*
X171450Y977900D01*
X158750Y977900D01*
X145300Y964450D01*
X145300Y952500D01*
D31*
X203200Y1060450D03*
D30*
X171450Y1028700D01*
X120650Y1028700D01*
X107950Y1016000D01*
D31*
X107950Y1016000D03*
D30*
X431800Y1035050D02*
X533400Y1035050D01*
X419100Y1003300D02*
X373900Y958100D01*
X373900Y952500D01*
D31*
X419100Y1003300D03*
D30*
X387350Y1003300D02*
X348500Y964450D01*
X348500Y952500D01*
D31*
X387350Y1003300D03*
D30*
X348500Y1003300D02*
X297700Y952500D01*
X348500Y1003300D02*
X349250Y1003300D01*
D31*
X349250Y1003300D03*
D30*
X311150Y991350D02*
X272300Y952500D01*
X311150Y991350D02*
X311150Y1003300D01*
D31*
X311150Y1003300D03*
D30*
X221500Y983500D02*
X221500Y952500D01*
X221500Y983500D02*
X260350Y1022350D01*
X342900Y1022350D01*
X355600Y1035050D01*
D31*
X336550Y508000D03*
D30*
X336550Y457200D01*
D31*
X336550Y457200D03*
M02*
