M48
;GenerationSoftware,Autodesk,EAGLE,9.7.0*%
;CreationDate,2022-12-05T21:27:54Z*%
FMAT,2
ICI,OFF
METRIC,TZ,000.000
T8C0.500
T7C0.813
T6C0.900
T5C1.016
T4C1.040
T3C1.270
T2C1.321
T1C2.800
%
G90
M71
T1
X88265Y3810
X88372Y109271
X3810Y3810
X79502Y82550
X69088Y82550
X3810Y109271
T2
X77495Y30480
X82525Y30480
T3
X64770Y63510
X64770Y66060
X64770Y60960
T4
X24690Y69850
X22150Y69850
X19610Y69850
X17070Y69850
X14530Y69850
X55170Y69850
X11990Y69850
X24690Y95250
X19610Y95250
X22150Y95250
X27230Y95250
X37390Y69850
X29770Y95250
X32310Y95250
X34850Y95250
X37390Y95250
X39930Y95250
X42470Y95250
X45010Y95250
X47550Y95250
X50090Y95250
X55170Y95250
X9450Y69850
X45010Y69850
X27230Y69850
X29770Y69850
X32310Y69850
X34850Y69850
X39930Y69850
X42470Y69850
X52630Y95250
X47550Y69850
X50090Y69850
X52630Y69850
X9450Y95250
X11990Y95250
X14530Y95250
X17070Y95250
T5
X16510Y109220
X13970Y109220
X27305Y104775
X31750Y109220
X22225Y102235
X27305Y99695
X19050Y109220
X52070Y109220
X49530Y109220
X46990Y109220
X44450Y109220
X41910Y109220
X39370Y109220
X21590Y109220
X29210Y109220
X24130Y109220
X26670Y109220
X34290Y109220
X36830Y109220
T6
X58850Y48260
X58850Y43180
X58850Y53340
X86790Y38100
X86790Y43180
X7620Y58420
X10160Y58420
X15240Y58420
X12700Y58420
X40640Y50800
X38100Y50800
X43180Y50800
X62230Y30480
X64770Y30480
X59690Y30480
T7
X38100Y66675
X48895Y59055
X41275Y59055
X31750Y63500
X24130Y63500
X26670Y66675
X19050Y66675
X38100Y59055
X30480Y59055
X10160Y63500
X13970Y105410
X7620Y66675
X15240Y66675
X44450Y64135
X44450Y66675
X50800Y64135
X50800Y66675
X2540Y63500
X13335Y63500
X16510Y105410
X13970Y100330
X16510Y100330
X53340Y106045
X53340Y100965
X53340Y103505
X41275Y62865
X36195Y62865
X38735Y62865
X20955Y63500
X35560Y103505
X43180Y103505
X30480Y66675
X53975Y58420
X53975Y60960
T8
X34925Y100330
X38735Y100330
X41910Y100330
X10795Y101600
X20320Y106045
X33655Y45720
X33655Y50800
X31115Y100330
M30