G04 EAGLE Gerber RS-274X export*
G75*
%MOMM*%
%FSLAX34Y34*%
%LPD*%
%INSoldermask Bottom*%
%IPPOS*%
%AMOC8*
5,1,8,0,0,1.08239X$1,22.5*%
G01*
G04 Define Apertures*
%ADD10P,1.64956X8X112.5*%
%ADD11P,1.95198X8X292.5*%
%ADD12C,1.803400*%
%ADD13P,1.64956X8X202.5*%
%ADD14P,1.95198X8X202.5*%
%ADD15C,5.537200*%
%ADD16C,1.727200*%
%ADD17C,1.524000*%
%ADD18P,1.64956X8X22.5*%
%ADD19R,1.763200X1.763200*%
%ADD20C,1.763200*%
%ADD21R,2.113200X2.113200*%
%ADD22C,2.113200*%
%ADD23C,1.611200*%
%ADD24R,1.611200X1.611200*%
%ADD25C,2.184400*%
%ADD26C,3.003200*%
%ADD27C,1.109600*%
D10*
X444500Y641350D03*
X444500Y666750D03*
D11*
X508000Y641350D03*
D12*
X508000Y666750D03*
D13*
X165100Y1054100D03*
X139700Y1054100D03*
D14*
X139700Y1003300D03*
D12*
X165100Y1003300D03*
D15*
X38100Y1092710D03*
X883720Y1092710D03*
X882650Y38100D03*
X38100Y38100D03*
D16*
X520700Y1084580D02*
X520700Y1099820D01*
X495300Y1099820D02*
X495300Y1084580D01*
X469900Y1084580D02*
X469900Y1099820D01*
X444500Y1099820D02*
X444500Y1084580D01*
X419100Y1084580D02*
X419100Y1099820D01*
X393700Y1099820D02*
X393700Y1084580D01*
X368300Y1084580D02*
X368300Y1099820D01*
X342900Y1099820D02*
X342900Y1084580D01*
X317500Y1084580D02*
X317500Y1099820D01*
X292100Y1099820D02*
X292100Y1084580D01*
X266700Y1084580D02*
X266700Y1099820D01*
X241300Y1099820D02*
X241300Y1084580D01*
X215900Y1084580D02*
X215900Y1099820D01*
X190500Y1099820D02*
X190500Y1084580D01*
X165100Y1084580D02*
X165100Y1099820D01*
X139700Y1099820D02*
X139700Y1084580D01*
D17*
X526796Y1060450D02*
X540004Y1060450D01*
X540004Y1009650D02*
X526796Y1009650D01*
X526796Y1035050D02*
X540004Y1035050D01*
X412750Y635254D02*
X412750Y622046D01*
X361950Y622046D02*
X361950Y635254D01*
X387350Y635254D02*
X387350Y622046D01*
D16*
X222250Y1014730D02*
X222250Y1029970D01*
X265430Y996950D02*
X280670Y996950D01*
X280670Y1047750D02*
X265430Y1047750D01*
D18*
X133350Y635000D03*
X209550Y635000D03*
X355600Y1035050D03*
X431800Y1035050D03*
X304800Y666750D03*
X381000Y666750D03*
D13*
X488950Y590550D03*
X412750Y590550D03*
X317500Y635000D03*
X241300Y635000D03*
X266700Y666750D03*
X190500Y666750D03*
X381000Y590550D03*
X304800Y590550D03*
X101600Y635000D03*
X25400Y635000D03*
D18*
X76200Y666750D03*
X152400Y666750D03*
D19*
X94500Y698500D03*
D20*
X119900Y698500D03*
X551700Y698500D03*
X145300Y698500D03*
X170700Y698500D03*
X196100Y698500D03*
X221500Y698500D03*
X246900Y698500D03*
X272300Y698500D03*
X297700Y698500D03*
X323100Y698500D03*
X348500Y698500D03*
X373900Y698500D03*
X399300Y698500D03*
X424700Y698500D03*
X450100Y698500D03*
X475500Y698500D03*
X500900Y698500D03*
X526300Y698500D03*
X94500Y952500D03*
X119900Y952500D03*
X145300Y952500D03*
X170700Y952500D03*
X196100Y952500D03*
X221500Y952500D03*
X246900Y952500D03*
X272300Y952500D03*
X297700Y952500D03*
X323100Y952500D03*
X348500Y952500D03*
X373900Y952500D03*
X399300Y952500D03*
X424700Y952500D03*
X450100Y952500D03*
X475500Y952500D03*
X500900Y952500D03*
X526300Y952500D03*
X551700Y952500D03*
D21*
X647700Y609600D03*
D22*
X647700Y635100D03*
X647700Y660600D03*
D23*
X867900Y381000D03*
X867900Y431800D03*
X588500Y431800D03*
X588500Y482600D03*
D24*
X588500Y533400D03*
D25*
X825246Y314706D02*
X825246Y294894D01*
X774954Y294894D02*
X774954Y314706D01*
D24*
X76200Y584200D03*
D23*
X101600Y584200D03*
X152400Y584200D03*
X127000Y584200D03*
X406400Y508000D03*
X381000Y508000D03*
D24*
X431800Y508000D03*
D23*
X622300Y304800D03*
D24*
X647700Y304800D03*
D23*
X596900Y304800D03*
D26*
X795020Y825500D03*
X690880Y825500D03*
D11*
X539750Y584200D03*
D12*
X539750Y609600D03*
D27*
X203200Y1060450D03*
X107950Y1016000D03*
X419100Y1003300D03*
X387350Y1003300D03*
X349250Y1003300D03*
X311150Y1003300D03*
X336550Y508000D03*
X336550Y457200D03*
M02*
